<mxfile><diagram id="Uy1qT0BCZqhUBXl-3H6h" name="Page-1"><mxGraphModel dx="659" dy="313" grid="1" gridSize="10" guides="1" tooltips="1" connect="1" arrows="1" fold="1" page="1" pageScale="1" pageWidth="850" pageHeight="1100" math="0" shadow="0"><root><mxCell id="0"/><mxCell id="1" parent="0"/><mxCell id="2" value="" style="whiteSpace=wrap;html=1;aspect=fixed;" parent="1" vertex="1"><mxGeometry x="240" y="60" width="500" height="500" as="geometry"/></mxCell><mxCell id="3" value="" style="outlineConnect=0;dashed=0;verticalLabelPosition=bottom;verticalAlign=top;align=center;html=1;shape=mxgraph.aws3.application_load_balancer;fillColor=#F58534;gradientColor=none;" parent="1" vertex="1"><mxGeometry x="280" y="255" width="69" height="72" as="geometry"/></mxCell><mxCell id="5" value="" style="whiteSpace=wrap;html=1;aspect=fixed;" parent="1" vertex="1"><mxGeometry x="410" y="150" width="270" height="270" as="geometry"/></mxCell><mxCell id="6" value="" style="outlineConnect=0;dashed=0;verticalLabelPosition=bottom;verticalAlign=top;align=center;html=1;shape=mxgraph.aws3.ecr;fillColor=#F58534;gradientColor=none;" parent="1" vertex="1"><mxGeometry x="610" y="272.75" width="40" height="36.5" as="geometry"/></mxCell><mxCell id="10" value="" style="outlineConnect=0;dashed=0;verticalLabelPosition=bottom;verticalAlign=top;align=center;html=1;shape=mxgraph.aws3.ecs;fillColor=#F58534;gradientColor=none;sketch=0;" parent="1" vertex="1"><mxGeometry x="440" y="258" width="72" height="67.5" as="geometry"/></mxCell><mxCell id="11" value="" style="endArrow=classic;html=1;movable=1;fixDash=0;flowAnimation=1;exitX=0;exitY=0.5;exitDx=0;exitDy=0;exitPerimeter=0;" parent="1" source="6" target="10" edge="1"><mxGeometry relative="1" as="geometry"><mxPoint x="512" y="291.25" as="sourcePoint"/><mxPoint x="650" y="280" as="targetPoint"/></mxGeometry></mxCell><mxCell id="12" value="ECR" style="edgeLabel;resizable=0;html=1;align=left;verticalAlign=bottom;" parent="11" connectable="0" vertex="1"><mxGeometry x="-1" relative="1" as="geometry"><mxPoint x="10" y="-18" as="offset"/></mxGeometry></mxCell><mxCell id="13" value="" style="verticalLabelPosition=bottom;html=1;verticalAlign=top;align=center;strokeColor=none;fillColor=#00BEF2;shape=mxgraph.azure.github_code;pointerEvents=1;sketch=0;" parent="1" vertex="1"><mxGeometry x="610" y="605" width="50" height="50" as="geometry"/></mxCell><mxCell id="18" value="" style="endArrow=classic;html=1;exitX=0.5;exitY=0;exitDx=0;exitDy=0;exitPerimeter=0;entryX=0.5;entryY=1;entryDx=0;entryDy=0;entryPerimeter=0;flowAnimation=1;" parent="1" source="13" target="6" edge="1"><mxGeometry width="50" height="50" relative="1" as="geometry"><mxPoint x="420" y="410" as="sourcePoint"/><mxPoint x="470" y="360" as="targetPoint"/></mxGeometry></mxCell><mxCell id="19" value="" style="aspect=fixed;perimeter=ellipsePerimeter;html=1;align=center;shadow=0;dashed=0;spacingTop=3;image;image=img/lib/active_directory/laptop_client.svg;sketch=0;" parent="1" vertex="1"><mxGeometry x="10" y="262" width="45" height="50" as="geometry"/></mxCell><mxCell id="21" value="" style="endArrow=classic;startArrow=classic;html=1;exitX=1;exitY=0.5;exitDx=0;exitDy=0;flowAnimation=1;" parent="1" source="19" target="3" edge="1"><mxGeometry width="50" height="50" relative="1" as="geometry"><mxPoint x="120" y="322" as="sourcePoint"/><mxPoint x="170" y="272" as="targetPoint"/></mxGeometry></mxCell><mxCell id="22" value="" style="endArrow=classic;startArrow=classic;html=1;exitX=1;exitY=0.5;exitDx=0;exitDy=0;flowAnimation=1;entryX=0;entryY=0.5;entryDx=0;entryDy=0;entryPerimeter=0;exitPerimeter=0;" parent="1" source="3" target="10" edge="1"><mxGeometry width="50" height="50" relative="1" as="geometry"><mxPoint x="349" y="286.37" as="sourcePoint"/><mxPoint x="574" y="285.50294797687866" as="targetPoint"/></mxGeometry></mxCell><mxCell id="23" value="" style="verticalLabelPosition=bottom;shadow=0;dashed=0;align=center;html=1;verticalAlign=top;strokeWidth=1;shape=mxgraph.mockup.containers.userMale;strokeColor=#666666;strokeColor2=#008cff;sketch=0;" parent="1" vertex="1"><mxGeometry x="325" y="580" width="100" height="100" as="geometry"/></mxCell><mxCell id="25" value="" style="endArrow=classic;html=1;movable=1;fixDash=0;flowAnimation=1;entryX=0;entryY=0.5;entryDx=0;entryDy=0;entryPerimeter=0;" parent="1" source="23" target="13" edge="1"><mxGeometry relative="1" as="geometry"><mxPoint x="548" y="620" as="sourcePoint"/><mxPoint x="450" y="620.5485074626865" as="targetPoint"/></mxGeometry></mxCell><mxCell id="26" value="Developer" style="edgeLabel;resizable=0;html=1;align=left;verticalAlign=bottom;" parent="25" connectable="0" vertex="1"><mxGeometry x="-1" relative="1" as="geometry"><mxPoint x="-76" y="80" as="offset"/></mxGeometry></mxCell><mxCell id="27" value="Github Actions" style="edgeLabel;resizable=0;html=1;align=left;verticalAlign=bottom;" parent="1" connectable="0" vertex="1"><mxGeometry x="610" y="690" as="geometry"/></mxCell><mxCell id="28" value="ALB" style="edgeLabel;resizable=0;html=1;align=left;verticalAlign=bottom;" parent="1" connectable="0" vertex="1"><mxGeometry x="300" y="350" as="geometry"/></mxCell><mxCell id="29" value="ECS" style="edgeLabel;resizable=0;html=1;align=left;verticalAlign=bottom;" parent="1" connectable="0" vertex="1"><mxGeometry x="460" y="350" as="geometry"/></mxCell><mxCell id="30" value="Client" style="edgeLabel;resizable=0;html=1;align=left;verticalAlign=bottom;" parent="1" connectable="0" vertex="1"><mxGeometry x="310" y="360" as="geometry"><mxPoint x="-288" y="-24" as="offset"/></mxGeometry></mxCell><mxCell id="31" value="App side in AWS" style="edgeLabel;resizable=0;html=1;align=left;verticalAlign=bottom;" parent="1" connectable="0" vertex="1"><mxGeometry x="420" y="170" as="geometry"/></mxCell><mxCell id="32" value="AWS Account" style="edgeLabel;resizable=0;html=1;align=left;verticalAlign=bottom;" parent="1" connectable="0" vertex="1"><mxGeometry x="240" y="80" as="geometry"/></mxCell><mxCell id="33" value="request&lt;span style=&quot;color: rgba(0, 0, 0, 0); font-family: monospace; font-size: 0px; background-color: rgb(42, 37, 47);&quot;&gt;%3CmxGraphModel%3E%3Croot%3E%3CmxCell%20id%3D%220%22%2F%3E%3CmxCell%20id%3D%221%22%20parent%3D%220%22%2F%3E%3CmxCell%20id%3D%222%22%20value%3D%22Client%22%20style%3D%22edgeLabel%3Bresizable%3D0%3Bhtml%3D1%3Balign%3Dleft%3BverticalAlign%3Dbottom%3B%22%20connectable%3D%220%22%20vertex%3D%221%22%20parent%3D%221%22%3E%3CmxGeometry%20x%3D%22310%22%20y%3D%22360%22%20as%3D%22geometry%22%3E%3CmxPoint%20x%3D%22-288%22%20y%3D%22-24%22%20as%3D%22offset%22%2F%3E%3C%2FmxGeometry%3E%3C%2FmxCell%3E%3C%2Froot%3E%3C%2FmxGraphModel%3E&lt;/span&gt;&lt;span style=&quot;color: rgba(0, 0, 0, 0); font-family: monospace; font-size: 0px; background-color: rgb(42, 37, 47);&quot;&gt;%3CmxGraphModel%3E%3Croot%3E%3CmxCell%20id%3D%220%22%2F%3E%3CmxCell%20id%3D%221%22%20parent%3D%220%22%2F%3E%3CmxCell%20id%3D%222%22%20value%3D%22Client%22%20style%3D%22edgeLabel%3Bresizable%3D0%3Bhtml%3D1%3Balign%3Dleft%3BverticalAlign%3Dbottom%3B%22%20connectable%3D%220%22%20vertex%3D%221%22%20parent%3D%221%22%3E%3CmxGeometry%20x%3D%22310%22%20y%3D%22360%22%20as%3D%22geometry%22%3E%3CmxPoint%20x%3D%22-288%22%20y%3D%22-24%22%20as%3D%22offset%22%2F%3E%3C%2FmxGeometry%3E%3C%2FmxCell%3E%3C%2Froot%3E%3C%2FmxGraphModel%3E&lt;/span&gt;" style="edgeLabel;resizable=0;html=1;align=left;verticalAlign=bottom;" parent="1" connectable="0" vertex="1"><mxGeometry x="420" y="300" as="geometry"><mxPoint x="-288" y="-24" as="offset"/></mxGeometry></mxCell><mxCell id="34" value="response" style="edgeLabel;resizable=0;html=1;align=left;verticalAlign=bottom;" parent="1" connectable="0" vertex="1"><mxGeometry x="420" y="340" as="geometry"><mxPoint x="-288" y="-24" as="offset"/></mxGeometry></mxCell></root></mxGraphModel></diagram></mxfile>